<svg width="65" height="65" viewBox="0 0 65 65" fill="none" xmlns="http://www.w3.org/2000/svg">
<path d="M46.2663 27.1617V21.3866C46.2663 13.9937 40.3269 8 32.9999 8C25.6728 8 19.7336 13.9937 19.7336 21.3866V27.1617H15V56H51V27.1617H46.2663ZM34.6802 43.0299L35.1803 48.2406H30.8192L31.3192 43.0279C29.8401 42.3755 28.8069 40.8862 28.8064 39.153C28.8064 36.8154 30.6839 34.9211 33 34.9192C35.3158 34.9211 37.1931 36.8154 37.1934 39.153C37.1931 40.8862 36.1596 42.3755 34.6802 43.0299ZM39.0689 27.1617H26.9313V21.3866C26.9313 18.0107 29.6537 15.2643 32.9999 15.2643C36.3462 15.2643 39.0689 18.0107 39.0689 21.3866V27.1617Z" fill="#F7EFE6"/>
<path d="M44 32H24V52H44V32Z" fill="#F7EFE6"/>
<path d="M22.5577 44.8668C22.5577 44.2272 22.0551 43.7223 21.2845 43.7223C20.5026 43.7223 20 44.2272 20 44.8668C20 45.5063 20.5026 46 21.2845 46C22.0551 46 22.5577 45.5063 22.5577 44.8668ZM23.2701 45.9102H25.9619L27.0676 41.0631L28.151 45.9102H30.8428L32.7751 38H30.4072L29.4913 43.3633L28.2851 38H25.8837L24.6439 43.4081L23.7281 38H21.3602L23.2701 45.9102ZM37.2112 45.9102H39.5232L36.6639 38H34.1397L31.2692 45.9102H33.57L33.9945 44.6199H36.7868L37.2112 45.9102ZM36.2395 42.9369H34.5529L35.3906 40.3787L36.2395 42.9369ZM41.8897 43.7111L40.1027 38H37.7571L40.4824 45.9102H43.2859L46 38H43.6656L41.8897 43.7111Z" fill="#AB2529"/>
</svg>
