<svg width="150" height="70" viewBox="0 0 150 70" fill="none" xmlns="http://www.w3.org/2000/svg">
<path d="M17.7624 21.5556C16.1384 21.5556 14.6401 21.2946 13.2674 20.7726C11.9141 20.2313 10.7251 19.487 9.70038 18.5396C8.69505 17.5923 7.91205 16.4903 7.35138 15.2336C6.81005 13.9576 6.53938 12.585 6.53938 11.1156C6.53938 9.64629 6.81005 8.28329 7.35138 7.02662C7.91205 5.75062 8.69505 4.63896 9.70038 3.69162C10.7251 2.74429 11.9141 2.00962 13.2674 1.48762C14.6401 0.946291 16.1384 0.675624 17.7624 0.675624C19.4057 0.675624 20.9041 0.936624 22.2574 1.45862C23.6301 1.98062 24.8191 2.72496 25.8244 3.69162C26.8491 4.63896 27.6321 5.75062 28.1734 7.02662C28.7341 8.28329 29.0144 9.64629 29.0144 11.1156C29.0144 12.585 28.7341 13.9576 28.1734 15.2336C27.6321 16.4903 26.8491 17.602 25.8244 18.5686C24.8191 19.516 23.6301 20.2506 22.2574 20.7726C20.9041 21.2946 19.4057 21.5556 17.7624 21.5556ZM17.7914 18.5106C18.9707 18.5106 20.0437 18.327 21.0104 17.9596C21.9964 17.573 22.8471 17.051 23.5624 16.3936C24.2777 15.717 24.8287 14.934 25.2154 14.0446C25.6214 13.136 25.8244 12.1596 25.8244 11.1156C25.8244 10.0716 25.6214 9.10496 25.2154 8.21562C24.8287 7.30696 24.2777 6.52396 23.5624 5.86662C22.8471 5.18996 21.9964 4.66796 21.0104 4.30062C20.0244 3.91396 18.9514 3.72062 17.7914 3.72062C16.6121 3.72062 15.5294 3.91396 14.5434 4.30062C13.5574 4.66796 12.6971 5.18029 11.9624 5.83762C11.2471 6.49496 10.6961 7.27796 10.3094 8.18662C9.92272 9.07596 9.72938 10.0523 9.72938 11.1156C9.72938 12.1596 9.92272 13.136 10.3094 14.0446C10.6961 14.9533 11.2471 15.7363 11.9624 16.3936C12.6971 17.051 13.5574 17.573 14.5434 17.9596C15.5294 18.327 16.6121 18.5106 17.7914 18.5106ZM34.7546 21.2656V0.965624H45.1946C46.3739 0.965624 47.4566 1.24596 48.4426 1.80662C49.4286 2.36729 50.2212 3.13096 50.8206 4.09762C51.4199 5.04496 51.7196 6.11796 51.7196 7.31662C51.7196 8.47662 51.4006 9.54962 50.7626 10.5356C50.1439 11.5023 49.3126 12.2756 48.2686 12.8556C47.2439 13.4356 46.1129 13.7256 44.8756 13.7256H37.8866V21.2656H34.7546ZM48.8776 21.2656L42.7296 12.1016L46.0066 11.3766L52.7346 21.2946L48.8776 21.2656ZM37.8866 10.7096H44.8466C45.5039 10.7096 46.1032 10.555 46.6446 10.2456C47.1859 9.93629 47.6209 9.52062 47.9496 8.99862C48.2782 8.47662 48.4426 7.90629 48.4426 7.28762C48.4426 6.64962 48.2589 6.08896 47.8916 5.60562C47.5436 5.10296 47.0699 4.70662 46.4706 4.41662C45.8712 4.12662 45.2042 3.98162 44.4696 3.98162H37.8866V10.7096ZM58.6816 21.2656V18.2496H63.0896V3.98162H58.6816V0.965624H70.6296V3.98162H66.2216V18.2496H70.6296V21.2656H58.6816ZM87.1539 21.5556C85.6266 21.5556 84.1669 21.314 82.7749 20.8306C81.4023 20.3473 80.1939 19.661 79.1499 18.7716C78.1059 17.863 77.2843 16.761 76.6849 15.4656C76.0856 14.1703 75.7859 12.7203 75.7859 11.1156C75.7859 9.66562 76.0759 8.31229 76.6559 7.05562C77.2553 5.79896 78.0866 4.70662 79.1499 3.77862C80.2133 2.83129 81.4506 2.09662 82.8619 1.57462C84.2733 1.05262 85.7909 0.791624 87.4149 0.791624C88.6909 0.791624 89.8896 0.946291 91.0109 1.25562C92.1516 1.56496 93.1569 1.98062 94.0269 2.50262C94.9163 3.02462 95.6219 3.60462 96.1439 4.24262L94.1139 6.44662C93.4759 5.90529 92.7993 5.44129 92.0839 5.05462C91.3686 4.66796 90.6146 4.36829 89.8219 4.15562C89.0486 3.94296 88.2463 3.83662 87.4149 3.83662C86.2356 3.83662 85.1336 4.02029 84.1089 4.38762C83.1036 4.75496 82.2143 5.26729 81.4409 5.92462C80.6869 6.58196 80.0973 7.35529 79.6719 8.24462C79.2659 9.11462 79.0629 10.0716 79.0629 11.1156C79.0629 12.2756 79.2853 13.3196 79.7299 14.2476C80.1746 15.1563 80.7836 15.9296 81.5569 16.5676C82.3303 17.2056 83.2099 17.689 84.1959 18.0176C85.2013 18.3463 86.2549 18.5106 87.3569 18.5106C88.3429 18.5106 89.2709 18.4043 90.1409 18.1916C91.0303 17.9596 91.8036 17.6406 92.4609 17.2346C93.1183 16.8093 93.6306 16.326 93.9979 15.7846C94.3653 15.2433 94.5393 14.6536 94.5199 14.0156L94.4909 13.5516L94.9549 14.0736H87.3569V11.0286H97.7969C97.8356 11.28 97.8646 11.5023 97.8839 11.6956C97.9033 11.8696 97.9129 12.0243 97.9129 12.1596C97.9323 12.295 97.9419 12.4206 97.9419 12.5366C97.9419 13.9673 97.6713 15.2433 97.1299 16.3646C96.6079 17.486 95.8636 18.4333 94.8969 19.2066C93.9303 19.9606 92.7896 20.5406 91.4749 20.9466C90.1796 21.3526 88.7393 21.5556 87.1539 21.5556ZM103.005 21.2656V18.2496H107.413V3.98162H103.005V0.965624H114.953V3.98162H110.545V18.2496H114.953V21.2656H103.005ZM122.042 21.2656V0.965624H125.029L139.703 17.5826L139.413 17.8436C139.317 17.3023 139.239 16.7223 139.181 16.1036C139.123 15.485 139.065 14.8373 139.007 14.1606C138.969 13.4646 138.93 12.759 138.891 12.0436C138.872 11.309 138.853 10.5743 138.833 9.83962C138.833 9.10496 138.833 8.37029 138.833 7.63562V0.965624H141.965V21.2656H138.92L124.449 5.25762L124.594 4.85162C124.652 5.56696 124.71 6.24362 124.768 6.88162C124.826 7.50029 124.875 8.09962 124.913 8.67962C124.971 9.24029 125.02 9.76229 125.058 10.2456C125.097 10.729 125.126 11.193 125.145 11.6376C125.165 12.063 125.174 12.4593 125.174 12.8266V21.2656H122.042ZM53.7737 45.2656L62.7637 24.9656H66.2147L75.1757 45.2656H71.7827L65.9247 32.0416C65.7894 31.7903 65.6347 31.452 65.4607 31.0266C65.306 30.6013 65.132 30.1566 64.9387 29.6926C64.7647 29.2093 64.5907 28.7453 64.4167 28.3006C64.262 27.8366 64.1267 27.4403 64.0107 27.1116L64.8227 27.0826C64.668 27.4886 64.5037 27.914 64.3297 28.3586C64.175 28.8033 64.0107 29.2576 63.8367 29.7216C63.6627 30.1663 63.4887 30.6013 63.3147 31.0266C63.1407 31.4326 62.9764 31.8096 62.8217 32.1576L57.0217 45.2656H53.7737ZM57.7177 40.3936L58.9067 37.3776H69.7237L70.5937 40.3936H57.7177ZM80.0552 45.2656V24.9656H83.1872V42.2496H94.9612V45.2656H80.0552ZM48.6076 69.2656L52.0876 48.9656H54.8716L51.3916 69.2656H48.6076ZM37.0076 64.4806V61.8416H56.2346V64.4806H37.0076ZM39.7626 69.2656L43.2426 48.9656H46.0266L42.5466 69.2656H39.7626ZM38.1096 56.3606V53.7216H57.3076V56.3606H38.1096ZM67.0593 69.5556C65.358 69.5556 63.908 69.1786 62.7093 68.4246C61.5107 67.6706 60.457 66.617 59.5483 65.2636L61.9843 63.4946C62.4097 64.0746 62.8737 64.616 63.3763 65.1186C63.879 65.6213 64.4397 66.0273 65.0583 66.3366C65.677 66.646 66.373 66.8006 67.1463 66.8006C67.9197 66.8006 68.664 66.6653 69.3793 66.3946C70.114 66.1046 70.7133 65.6696 71.1773 65.0896C71.6607 64.5096 71.9023 63.7846 71.9023 62.9146C71.9023 62.122 71.709 61.4743 71.3223 60.9716C70.9357 60.469 70.433 60.1016 69.8143 59.8696C69.1957 59.6183 68.5383 59.4926 67.8423 59.4926C67.475 59.4926 67.1173 59.5216 66.7693 59.5796C66.4213 59.6183 66.083 59.686 65.7543 59.7826C65.4257 59.8793 65.0873 59.9856 64.7393 60.1016L63.7533 58.0426L70.8293 50.9666L70.9453 51.8656H60.6793V48.9656H73.9323L74.5123 50.6186L67.0593 58.1296L66.3343 56.9116C66.547 56.8343 66.8757 56.7666 67.3203 56.7086C67.765 56.6506 68.171 56.6216 68.5383 56.6216C69.4083 56.6216 70.2203 56.7763 70.9743 57.0856C71.7477 57.395 72.4243 57.8203 73.0043 58.3616C73.6037 58.903 74.0677 59.5506 74.3963 60.3046C74.7443 61.0393 74.9183 61.832 74.9183 62.6826C74.9183 64.036 74.5607 65.2346 73.8453 66.2786C73.1493 67.3033 72.2117 68.1056 71.0323 68.6856C69.853 69.2656 68.5287 69.5556 67.0593 69.5556ZM85.1012 69.4686C83.6898 69.4686 82.3752 69.169 81.1572 68.5696C79.9585 67.951 78.9532 67.139 78.1412 66.1336L79.8232 63.9006C80.7318 64.8093 81.6212 65.486 82.4912 65.9306C83.3612 66.3753 84.2312 66.5976 85.1012 66.5976C86.0292 66.5976 86.8605 66.4333 87.5952 66.1046C88.3492 65.7566 88.9388 65.2733 89.3642 64.6546C89.7895 64.036 90.0022 63.311 90.0022 62.4796C90.0022 61.745 89.7895 61.078 89.3642 60.4786C88.9388 59.8793 88.3782 59.4056 87.6822 59.0576C86.9862 58.6903 86.2032 58.5066 85.3332 58.5066C84.7145 58.5066 84.1442 58.5646 83.6222 58.6806C83.1002 58.7773 82.5975 58.9223 82.1142 59.1156C81.6308 59.2896 81.1378 59.4926 80.6352 59.7246L78.9822 57.5786L80.1712 48.9656H91.7712V51.8656H82.1432L82.6362 51.3146L81.6792 57.7526L81.0702 56.9116C81.2828 56.7183 81.6502 56.5346 82.1722 56.3606C82.7135 56.1673 83.3128 56.0126 83.9702 55.8966C84.6275 55.7613 85.2655 55.6936 85.8842 55.6936C87.2182 55.6936 88.4168 55.974 89.4802 56.5346C90.5628 57.0953 91.4232 57.8783 92.0612 58.8836C92.7185 59.8696 93.0472 61.0296 93.0472 62.3636C93.0472 63.6976 92.6895 64.906 91.9742 65.9886C91.2782 67.052 90.3308 67.9026 89.1322 68.5406C87.9335 69.1593 86.5898 69.4686 85.1012 69.4686ZM104.555 69.3526C103.085 69.3526 101.771 69.082 100.611 68.5406C99.4698 67.98 98.5612 67.2356 97.8845 66.3076C97.2272 65.3796 96.8985 64.3646 96.8985 63.2626C96.8985 62.586 96.9952 61.9866 97.1885 61.4646C97.3818 60.9233 97.6622 60.4496 98.0295 60.0436C98.3968 59.6376 98.8125 59.28 99.2765 58.9706C99.7598 58.642 100.272 58.352 100.814 58.1006L100.64 59.0286C100.214 58.8546 99.8178 58.6323 99.4505 58.3616C99.0832 58.0716 98.7545 57.743 98.4645 57.3756C98.1938 56.989 97.9812 56.5636 97.8265 56.0996C97.6718 55.6356 97.5945 55.133 97.5945 54.5916C97.5945 53.5476 97.9038 52.61 98.5225 51.7786C99.1412 50.928 99.9725 50.2513 101.017 49.7486C102.08 49.2266 103.259 48.9656 104.555 48.9656C105.85 48.9656 107.02 49.2266 108.064 49.7486C109.108 50.2513 109.929 50.928 110.529 51.7786C111.147 52.61 111.457 53.5476 111.457 54.5916C111.457 55.1523 111.37 55.6743 111.196 56.1576C111.041 56.6216 110.819 57.0373 110.529 57.4046C110.258 57.772 109.939 58.091 109.572 58.3616C109.204 58.6323 108.827 58.8546 108.441 59.0286L108.354 58.2166C108.934 58.4486 109.456 58.7386 109.92 59.0866C110.403 59.4346 110.819 59.831 111.167 60.2756C111.515 60.701 111.776 61.165 111.95 61.6676C112.143 62.1703 112.24 62.702 112.24 63.2626C112.24 64.384 111.901 65.4086 111.225 66.3366C110.548 67.2646 109.63 67.9993 108.47 68.5406C107.329 69.082 106.024 69.3526 104.555 69.3526ZM104.555 66.4526C105.425 66.4526 106.208 66.3173 106.904 66.0466C107.6 65.7566 108.151 65.37 108.557 64.8866C108.963 64.4033 109.166 63.8523 109.166 63.2336C109.166 62.5956 108.963 62.0446 108.557 61.5806C108.151 61.0973 107.59 60.7203 106.875 60.4496C106.179 60.1596 105.405 60.0146 104.555 60.0146C103.685 60.0146 102.902 60.1596 102.206 60.4496C101.51 60.7203 100.949 61.0973 100.524 61.5806C100.118 62.0446 99.9145 62.5956 99.9145 63.2336C99.9145 63.833 100.118 64.3743 100.524 64.8576C100.93 65.341 101.481 65.7276 102.177 66.0176C102.873 66.3076 103.665 66.4526 104.555 66.4526ZM104.555 57.3466C105.27 57.3466 105.918 57.2306 106.498 56.9986C107.078 56.7473 107.532 56.409 107.861 55.9836C108.209 55.5583 108.383 55.0653 108.383 54.5046C108.383 54.002 108.218 53.5573 107.89 53.1706C107.561 52.7646 107.107 52.4456 106.527 52.2136C105.947 51.9816 105.289 51.8656 104.555 51.8656C103.801 51.8656 103.124 51.9816 102.525 52.2136C101.945 52.4456 101.49 52.7646 101.162 53.1706C100.833 53.5573 100.669 54.002 100.669 54.5046C100.669 55.0653 100.833 55.5583 101.162 55.9836C101.51 56.409 101.974 56.7473 102.554 56.9986C103.153 57.2306 103.82 57.3466 104.555 57.3466Z" fill="white"/>
</svg>
