<svg width="150" height="64" viewBox="0 0 150 64" fill="none" xmlns="http://www.w3.org/2000/svg">
<path d="M19.4894 32V11.7H29.9294C31.1087 11.7 32.1914 11.9803 33.1774 12.541C34.1634 13.1017 34.956 13.8653 35.5554 14.832C36.1547 15.7793 36.4544 16.8523 36.4544 18.051C36.4544 19.211 36.1354 20.284 35.4974 21.27C34.8787 22.2367 34.0474 23.01 33.0034 23.59C31.9787 24.17 30.8477 24.46 29.6104 24.46H22.6214V32H19.4894ZM33.6124 32L27.4644 22.836L30.7414 22.111L37.4694 32.029L33.6124 32ZM22.6214 21.444H29.5814C30.2387 21.444 30.838 21.2893 31.3794 20.98C31.9207 20.6707 32.3557 20.255 32.6844 19.733C33.013 19.211 33.1774 18.6407 33.1774 18.022C33.1774 17.384 32.9937 16.8233 32.6264 16.34C32.2784 15.8373 31.8047 15.441 31.2054 15.151C30.606 14.861 29.939 14.716 29.2044 14.716H22.6214V21.444ZM41.2414 32L50.2314 11.7H53.6824L62.6434 32H59.2504L53.3924 18.776C53.2571 18.5247 53.1024 18.1863 52.9284 17.761C52.7737 17.3357 52.5997 16.891 52.4064 16.427C52.2324 15.9437 52.0584 15.4797 51.8844 15.035C51.7297 14.571 51.5944 14.1747 51.4784 13.846L52.2904 13.817C52.1357 14.223 51.9714 14.6483 51.7974 15.093C51.6427 15.5377 51.4784 15.992 51.3044 16.456C51.1304 16.9007 50.9564 17.3357 50.7824 17.761C50.6084 18.167 50.4441 18.544 50.2894 18.892L44.4894 32H41.2414ZM45.1854 27.128L46.3744 24.112H57.1914L58.0614 27.128H45.1854ZM67.5229 32V11.7H76.7739C78.4559 11.7 79.9445 11.961 81.2399 12.483C82.5545 12.9857 83.6662 13.701 84.5749 14.629C85.4835 15.557 86.1699 16.6397 86.6339 17.877C87.0979 19.095 87.3299 20.4193 87.3299 21.85C87.3299 23.3 87.0979 24.6437 86.6339 25.881C86.1699 27.1183 85.4835 28.1913 84.5749 29.1C83.6855 30.0087 82.5835 30.724 81.2689 31.246C79.9542 31.7487 78.4559 32 76.7739 32H67.5229ZM70.6549 29.303L70.5679 28.984H76.6289C77.8855 28.984 78.9779 28.81 79.9059 28.462C80.8532 28.114 81.6265 27.621 82.2259 26.983C82.8445 26.345 83.2989 25.591 83.5889 24.721C83.8982 23.851 84.0529 22.894 84.0529 21.85C84.0529 20.8253 83.8982 19.8877 83.5889 19.037C83.2989 18.167 82.8445 17.413 82.2259 16.775C81.6072 16.1177 80.8339 15.615 79.9059 15.267C78.9779 14.8997 77.8855 14.716 76.6289 14.716H70.4809L70.6549 14.455V29.303ZM92.4411 32V28.984H96.8491V14.716H92.4411V11.7H104.389V14.716H99.9811V28.984H104.389V32H92.4411ZM120.768 32.29C119.144 32.29 117.646 32.029 116.273 31.507C114.92 30.9657 113.731 30.2213 112.706 29.274C111.701 28.3267 110.918 27.2247 110.357 25.968C109.816 24.692 109.545 23.3193 109.545 21.85C109.545 20.3807 109.816 19.0177 110.357 17.761C110.918 16.485 111.701 15.3733 112.706 14.426C113.731 13.4787 114.92 12.744 116.273 12.222C117.646 11.6807 119.144 11.41 120.768 11.41C122.412 11.41 123.91 11.671 125.263 12.193C126.636 12.715 127.825 13.4593 128.83 14.426C129.855 15.3733 130.638 16.485 131.179 17.761C131.74 19.0177 132.02 20.3807 132.02 21.85C132.02 23.3193 131.74 24.692 131.179 25.968C130.638 27.2247 129.855 28.3363 128.83 29.303C127.825 30.2503 126.636 30.985 125.263 31.507C123.91 32.029 122.412 32.29 120.768 32.29ZM120.797 29.245C121.977 29.245 123.05 29.0613 124.016 28.694C125.002 28.3073 125.853 27.7853 126.568 27.128C127.284 26.4513 127.835 25.6683 128.221 24.779C128.627 23.8703 128.83 22.894 128.83 21.85C128.83 20.806 128.627 19.8393 128.221 18.95C127.835 18.0413 127.284 17.2583 126.568 16.601C125.853 15.9243 125.002 15.4023 124.016 15.035C123.03 14.6483 121.957 14.455 120.797 14.455C119.618 14.455 118.535 14.6483 117.549 15.035C116.563 15.4023 115.703 15.9147 114.968 16.572C114.253 17.2293 113.702 18.0123 113.315 18.921C112.929 19.8103 112.735 20.7867 112.735 21.85C112.735 22.894 112.929 23.8703 113.315 24.779C113.702 25.6877 114.253 26.4707 114.968 27.128C115.703 27.7853 116.563 28.3073 117.549 28.694C118.535 29.0613 119.618 29.245 120.797 29.245ZM35.8591 56V35.7H50.9101V38.716H38.9911V52.984H50.9101V56H35.8591ZM37.4541 47.097V44.081H49.3151V47.097H37.4541ZM57.5252 56V35.7H66.7762C68.4582 35.7 69.9469 35.961 71.2422 36.483C72.5569 36.9857 73.6686 37.701 74.5772 38.629C75.4859 39.557 76.1722 40.6397 76.6362 41.877C77.1002 43.095 77.3322 44.4193 77.3322 45.85C77.3322 47.3 77.1002 48.6437 76.6362 49.881C76.1722 51.1183 75.4859 52.1913 74.5772 53.1C73.6879 54.0087 72.5859 54.724 71.2712 55.246C69.9566 55.7487 68.4582 56 66.7762 56H57.5252ZM60.6572 53.303L60.5702 52.984H66.6312C67.8879 52.984 68.9802 52.81 69.9082 52.462C70.8556 52.114 71.6289 51.621 72.2282 50.983C72.8469 50.345 73.3012 49.591 73.5912 48.721C73.9006 47.851 74.0552 46.894 74.0552 45.85C74.0552 44.8253 73.9006 43.8877 73.5912 43.037C73.3012 42.167 72.8469 41.413 72.2282 40.775C71.6096 40.1177 70.8362 39.615 69.9082 39.267C68.9802 38.8997 67.8879 38.716 66.6312 38.716H60.4832L60.6572 38.455V53.303ZM82.4435 56V52.984H86.8515V38.716H82.4435V35.7H94.3915V38.716H89.9835V52.984H94.3915V56H82.4435ZM106.179 56V38.716H99.3346V35.7H116.3V38.716H109.311V56H106.179Z" fill="white"/>
</svg>
