<svg width="150" height="70" viewBox="0 0 150 70" fill="none" xmlns="http://www.w3.org/2000/svg">
<rect x="1" y="2" width="148" height="62" fill="#AB2529"/>
<path d="M17.7624 21.29C16.1384 21.29 14.6401 21.029 13.2674 20.507C11.9141 19.9657 10.7251 19.2213 9.70038 18.274C8.69505 17.3267 7.91205 16.2247 7.35138 14.968C6.81005 13.692 6.53938 12.3193 6.53938 10.85C6.53938 9.38067 6.81005 8.01767 7.35138 6.761C7.91205 5.485 8.69505 4.37333 9.70038 3.426C10.7251 2.47867 11.9141 1.744 13.2674 1.222C14.6401 0.680666 16.1384 0.409999 17.7624 0.409999C19.4057 0.409999 20.9041 0.670999 22.2574 1.193C23.6301 1.715 24.8191 2.45933 25.8244 3.426C26.8491 4.37333 27.6321 5.485 28.1734 6.761C28.7341 8.01767 29.0144 9.38067 29.0144 10.85C29.0144 12.3193 28.7341 13.692 28.1734 14.968C27.6321 16.2247 26.8491 17.3363 25.8244 18.303C24.8191 19.2503 23.6301 19.985 22.2574 20.507C20.9041 21.029 19.4057 21.29 17.7624 21.29ZM17.7914 18.245C18.9707 18.245 20.0437 18.0613 21.0104 17.694C21.9964 17.3073 22.8471 16.7853 23.5624 16.128C24.2777 15.4513 24.8287 14.6683 25.2154 13.779C25.6214 12.8703 25.8244 11.894 25.8244 10.85C25.8244 9.806 25.6214 8.83933 25.2154 7.95C24.8287 7.04133 24.2777 6.25833 23.5624 5.601C22.8471 4.92433 21.9964 4.40233 21.0104 4.035C20.0244 3.64833 18.9514 3.455 17.7914 3.455C16.6121 3.455 15.5294 3.64833 14.5434 4.035C13.5574 4.40233 12.6971 4.91467 11.9624 5.572C11.2471 6.22933 10.6961 7.01233 10.3094 7.921C9.92272 8.81033 9.72938 9.78667 9.72938 10.85C9.72938 11.894 9.92272 12.8703 10.3094 13.779C10.6961 14.6877 11.2471 15.4707 11.9624 16.128C12.6971 16.7853 13.5574 17.3073 14.5434 17.694C15.5294 18.0613 16.6121 18.245 17.7914 18.245ZM34.7546 21V0.699999H45.1946C46.3739 0.699999 47.4566 0.980332 48.4426 1.541C49.4286 2.10167 50.2212 2.86533 50.8206 3.832C51.4199 4.77933 51.7196 5.85233 51.7196 7.051C51.7196 8.211 51.4006 9.284 50.7626 10.27C50.1439 11.2367 49.3126 12.01 48.2686 12.59C47.2439 13.17 46.1129 13.46 44.8756 13.46H37.8866V21H34.7546ZM48.8776 21L42.7296 11.836L46.0066 11.111L52.7346 21.029L48.8776 21ZM37.8866 10.444H44.8466C45.5039 10.444 46.1032 10.2893 46.6446 9.98C47.1859 9.67067 47.6209 9.255 47.9496 8.733C48.2782 8.211 48.4426 7.64067 48.4426 7.022C48.4426 6.384 48.2589 5.82333 47.8916 5.34C47.5436 4.83733 47.0699 4.441 46.4706 4.151C45.8712 3.861 45.2042 3.716 44.4696 3.716H37.8866V10.444ZM58.6816 21V17.984H63.0896V3.716H58.6816V0.699999H70.6296V3.716H66.2216V17.984H70.6296V21H58.6816ZM87.1539 21.29C85.6266 21.29 84.1669 21.0483 82.7749 20.565C81.4023 20.0817 80.1939 19.3953 79.1499 18.506C78.1059 17.5973 77.2843 16.4953 76.6849 15.2C76.0856 13.9047 75.7859 12.4547 75.7859 10.85C75.7859 9.4 76.0759 8.04667 76.6559 6.79C77.2553 5.53333 78.0866 4.441 79.1499 3.513C80.2133 2.56567 81.4506 1.831 82.8619 1.309C84.2733 0.786999 85.7909 0.525999 87.4149 0.525999C88.6909 0.525999 89.8896 0.680666 91.0109 0.989998C92.1516 1.29933 93.1569 1.715 94.0269 2.237C94.9163 2.759 95.6219 3.339 96.1439 3.977L94.1139 6.181C93.4759 5.63967 92.7993 5.17567 92.0839 4.789C91.3686 4.40233 90.6146 4.10267 89.8219 3.89C89.0486 3.67733 88.2463 3.571 87.4149 3.571C86.2356 3.571 85.1336 3.75467 84.1089 4.122C83.1036 4.48933 82.2143 5.00167 81.4409 5.659C80.6869 6.31633 80.0973 7.08967 79.6719 7.979C79.2659 8.849 79.0629 9.806 79.0629 10.85C79.0629 12.01 79.2853 13.054 79.7299 13.982C80.1746 14.8907 80.7836 15.664 81.5569 16.302C82.3303 16.94 83.2099 17.4233 84.1959 17.752C85.2013 18.0807 86.2549 18.245 87.3569 18.245C88.3429 18.245 89.2709 18.1387 90.1409 17.926C91.0303 17.694 91.8036 17.375 92.4609 16.969C93.1183 16.5437 93.6306 16.0603 93.9979 15.519C94.3653 14.9777 94.5393 14.388 94.5199 13.75L94.4909 13.286L94.9549 13.808H87.3569V10.763H97.7969C97.8356 11.0143 97.8646 11.2367 97.8839 11.43C97.9033 11.604 97.9129 11.7587 97.9129 11.894C97.9323 12.0293 97.9419 12.155 97.9419 12.271C97.9419 13.7017 97.6713 14.9777 97.1299 16.099C96.6079 17.2203 95.8636 18.1677 94.8969 18.941C93.9303 19.695 92.7896 20.275 91.4749 20.681C90.1796 21.087 88.7393 21.29 87.1539 21.29ZM103.005 21V17.984H107.413V3.716H103.005V0.699999H114.953V3.716H110.545V17.984H114.953V21H103.005ZM122.042 21V0.699999H125.029L139.703 17.317L139.413 17.578C139.317 17.0367 139.239 16.4567 139.181 15.838C139.123 15.2193 139.065 14.5717 139.007 13.895C138.969 13.199 138.93 12.4933 138.891 11.778C138.872 11.0433 138.853 10.3087 138.833 9.574C138.833 8.83933 138.833 8.10467 138.833 7.37V0.699999H141.965V21H138.92L124.449 4.992L124.594 4.586C124.652 5.30133 124.71 5.978 124.768 6.616C124.826 7.23467 124.875 7.834 124.913 8.414C124.971 8.97467 125.02 9.49667 125.058 9.98C125.097 10.4633 125.126 10.9273 125.145 11.372C125.165 11.7973 125.174 12.1937 125.174 12.561V21H122.042ZM53.7737 45L62.7637 24.7H66.2147L75.1757 45H71.7827L65.9247 31.776C65.7894 31.5247 65.6347 31.1863 65.4607 30.761C65.306 30.3357 65.132 29.891 64.9387 29.427C64.7647 28.9437 64.5907 28.4797 64.4167 28.035C64.262 27.571 64.1267 27.1747 64.0107 26.846L64.8227 26.817C64.668 27.223 64.5037 27.6483 64.3297 28.093C64.175 28.5377 64.0107 28.992 63.8367 29.456C63.6627 29.9007 63.4887 30.3357 63.3147 30.761C63.1407 31.167 62.9764 31.544 62.8217 31.892L57.0217 45H53.7737ZM57.7177 40.128L58.9067 37.112H69.7237L70.5937 40.128H57.7177ZM80.0552 45V24.7H83.1872V41.984H94.9612V45H80.0552ZM48.6076 69L52.0876 48.7H54.8716L51.3916 69H48.6076ZM37.0076 64.215V61.576H56.2346V64.215H37.0076ZM39.7626 69L43.2426 48.7H46.0266L42.5466 69H39.7626ZM38.1096 56.095V53.456H57.3076V56.095H38.1096ZM67.0593 69.29C65.358 69.29 63.908 68.913 62.7093 68.159C61.5107 67.405 60.457 66.3513 59.5483 64.998L61.9843 63.229C62.4097 63.809 62.8737 64.3503 63.3763 64.853C63.879 65.3557 64.4397 65.7617 65.0583 66.071C65.677 66.3803 66.373 66.535 67.1463 66.535C67.9197 66.535 68.664 66.3997 69.3793 66.129C70.114 65.839 70.7133 65.404 71.1773 64.824C71.6607 64.244 71.9023 63.519 71.9023 62.649C71.9023 61.8563 71.709 61.2087 71.3223 60.706C70.9357 60.2033 70.433 59.836 69.8143 59.604C69.1957 59.3527 68.5383 59.227 67.8423 59.227C67.475 59.227 67.1173 59.256 66.7693 59.314C66.4213 59.3527 66.083 59.4203 65.7543 59.517C65.4257 59.6137 65.0873 59.72 64.7393 59.836L63.7533 57.777L70.8293 50.701L70.9453 51.6H60.6793V48.7H73.9323L74.5123 50.353L67.0593 57.864L66.3343 56.646C66.547 56.5687 66.8757 56.501 67.3203 56.443C67.765 56.385 68.171 56.356 68.5383 56.356C69.4083 56.356 70.2203 56.5107 70.9743 56.82C71.7477 57.1293 72.4243 57.5547 73.0043 58.096C73.6037 58.6373 74.0677 59.285 74.3963 60.039C74.7443 60.7737 74.9183 61.5663 74.9183 62.417C74.9183 63.7703 74.5607 64.969 73.8453 66.013C73.1493 67.0377 72.2117 67.84 71.0323 68.42C69.853 69 68.5287 69.29 67.0593 69.29ZM85.1012 69.203C83.6898 69.203 82.3752 68.9033 81.1572 68.304C79.9585 67.6853 78.9532 66.8733 78.1412 65.868L79.8232 63.635C80.7318 64.5437 81.6212 65.2203 82.4912 65.665C83.3612 66.1097 84.2312 66.332 85.1012 66.332C86.0292 66.332 86.8605 66.1677 87.5952 65.839C88.3492 65.491 88.9388 65.0077 89.3642 64.389C89.7895 63.7703 90.0022 63.0453 90.0022 62.214C90.0022 61.4793 89.7895 60.8123 89.3642 60.213C88.9388 59.6137 88.3782 59.14 87.6822 58.792C86.9862 58.4247 86.2032 58.241 85.3332 58.241C84.7145 58.241 84.1442 58.299 83.6222 58.415C83.1002 58.5117 82.5975 58.6567 82.1142 58.85C81.6308 59.024 81.1378 59.227 80.6352 59.459L78.9822 57.313L80.1712 48.7H91.7712V51.6H82.1432L82.6362 51.049L81.6792 57.487L81.0702 56.646C81.2828 56.4527 81.6502 56.269 82.1722 56.095C82.7135 55.9017 83.3128 55.747 83.9702 55.631C84.6275 55.4957 85.2655 55.428 85.8842 55.428C87.2182 55.428 88.4168 55.7083 89.4802 56.269C90.5628 56.8297 91.4232 57.6127 92.0612 58.618C92.7185 59.604 93.0472 60.764 93.0472 62.098C93.0472 63.432 92.6895 64.6403 91.9742 65.723C91.2782 66.7863 90.3308 67.637 89.1322 68.275C87.9335 68.8937 86.5898 69.203 85.1012 69.203ZM104.555 69.087C103.085 69.087 101.771 68.8163 100.611 68.275C99.4698 67.7143 98.5612 66.97 97.8845 66.042C97.2272 65.114 96.8985 64.099 96.8985 62.997C96.8985 62.3203 96.9952 61.721 97.1885 61.199C97.3818 60.6577 97.6622 60.184 98.0295 59.778C98.3968 59.372 98.8125 59.0143 99.2765 58.705C99.7598 58.3763 100.272 58.0863 100.814 57.835L100.64 58.763C100.214 58.589 99.8178 58.3667 99.4505 58.096C99.0832 57.806 98.7545 57.4773 98.4645 57.11C98.1938 56.7233 97.9812 56.298 97.8265 55.834C97.6718 55.37 97.5945 54.8673 97.5945 54.326C97.5945 53.282 97.9038 52.3443 98.5225 51.513C99.1412 50.6623 99.9725 49.9857 101.017 49.483C102.08 48.961 103.259 48.7 104.555 48.7C105.85 48.7 107.02 48.961 108.064 49.483C109.108 49.9857 109.929 50.6623 110.529 51.513C111.147 52.3443 111.457 53.282 111.457 54.326C111.457 54.8867 111.37 55.4087 111.196 55.892C111.041 56.356 110.819 56.7717 110.529 57.139C110.258 57.5063 109.939 57.8253 109.572 58.096C109.204 58.3667 108.827 58.589 108.441 58.763L108.354 57.951C108.934 58.183 109.456 58.473 109.92 58.821C110.403 59.169 110.819 59.5653 111.167 60.01C111.515 60.4353 111.776 60.8993 111.95 61.402C112.143 61.9047 112.24 62.4363 112.24 62.997C112.24 64.1183 111.901 65.143 111.225 66.071C110.548 66.999 109.63 67.7337 108.47 68.275C107.329 68.8163 106.024 69.087 104.555 69.087ZM104.555 66.187C105.425 66.187 106.208 66.0517 106.904 65.781C107.6 65.491 108.151 65.1043 108.557 64.621C108.963 64.1377 109.166 63.5867 109.166 62.968C109.166 62.33 108.963 61.779 108.557 61.315C108.151 60.8317 107.59 60.4547 106.875 60.184C106.179 59.894 105.405 59.749 104.555 59.749C103.685 59.749 102.902 59.894 102.206 60.184C101.51 60.4547 100.949 60.8317 100.524 61.315C100.118 61.779 99.9145 62.33 99.9145 62.968C99.9145 63.5673 100.118 64.1087 100.524 64.592C100.93 65.0753 101.481 65.462 102.177 65.752C102.873 66.042 103.665 66.187 104.555 66.187ZM104.555 57.081C105.27 57.081 105.918 56.965 106.498 56.733C107.078 56.4817 107.532 56.1433 107.861 55.718C108.209 55.2927 108.383 54.7997 108.383 54.239C108.383 53.7363 108.218 53.2917 107.89 52.905C107.561 52.499 107.107 52.18 106.527 51.948C105.947 51.716 105.289 51.6 104.555 51.6C103.801 51.6 103.124 51.716 102.525 51.948C101.945 52.18 101.49 52.499 101.162 52.905C100.833 53.2917 100.669 53.7363 100.669 54.239C100.669 54.7997 100.833 55.2927 101.162 55.718C101.51 56.1433 101.974 56.4817 102.554 56.733C103.153 56.965 103.82 57.081 104.555 57.081Z" fill="white"/>
<rect x="1" y="2" width="148" height="62" stroke="#FFFD38" stroke-width="2"/>
</svg>
