<svg width="150" height="64" viewBox="0 0 150 64" fill="none" xmlns="http://www.w3.org/2000/svg">
<path d="M28.5666 33V12.7H31.6406L40.0796 24.416L38.8036 24.387L47.2716 12.7H50.2876V33H47.1556V24.503C47.1556 22.8403 47.1943 21.313 47.2716 19.921C47.3489 18.5097 47.5036 17.0887 47.7356 15.658L48.0836 16.818L40.3406 27.171H38.4266L30.7996 16.847L31.1186 15.658C31.3506 17.05 31.5053 18.442 31.5826 19.834C31.6599 21.226 31.6986 22.7823 31.6986 24.503V33H28.5666ZM55.1614 33L64.1514 12.7H67.6024L76.5634 33H73.1704L67.3124 19.776C67.1771 19.5247 67.0224 19.1863 66.8484 18.761C66.6937 18.3357 66.5197 17.891 66.3264 17.427C66.1524 16.9437 65.9784 16.4797 65.8044 16.035C65.6497 15.571 65.5144 15.1747 65.3984 14.846L66.2104 14.817C66.0557 15.223 65.8914 15.6483 65.7174 16.093C65.5627 16.5377 65.3984 16.992 65.2244 17.456C65.0504 17.9007 64.8764 18.3357 64.7024 18.761C64.5284 19.167 64.3641 19.544 64.2094 19.892L58.4094 33H55.1614ZM59.1054 28.128L60.2944 25.112H71.1114L71.9814 28.128H59.1054ZM83.8499 27.461L83.7629 23.923L96.8419 12.7H101.25L83.8499 27.461ZM81.4429 33V12.7H84.5749V33H81.4429ZM97.0159 33L88.6349 22.27L90.7229 20.008L101.076 33H97.0159ZM107.017 33V12.7H122.068V15.716H110.149V29.984H122.068V33H107.017ZM108.612 24.097V21.081H120.473V24.097H108.612ZM35.8591 57V36.7H50.9101V39.716H38.9911V53.984H50.9101V57H35.8591ZM37.4541 48.097V45.081H49.3151V48.097H37.4541ZM57.5252 57V36.7H66.7762C68.4582 36.7 69.9469 36.961 71.2422 37.483C72.5569 37.9857 73.6686 38.701 74.5772 39.629C75.4859 40.557 76.1722 41.6397 76.6362 42.877C77.1002 44.095 77.3322 45.4193 77.3322 46.85C77.3322 48.3 77.1002 49.6437 76.6362 50.881C76.1722 52.1183 75.4859 53.1913 74.5772 54.1C73.6879 55.0087 72.5859 55.724 71.2712 56.246C69.9566 56.7487 68.4582 57 66.7762 57H57.5252ZM60.6572 54.303L60.5702 53.984H66.6312C67.8879 53.984 68.9802 53.81 69.9082 53.462C70.8556 53.114 71.6289 52.621 72.2282 51.983C72.8469 51.345 73.3012 50.591 73.5912 49.721C73.9006 48.851 74.0552 47.894 74.0552 46.85C74.0552 45.8253 73.9006 44.8877 73.5912 44.037C73.3012 43.167 72.8469 42.413 72.2282 41.775C71.6096 41.1177 70.8362 40.615 69.9082 40.267C68.9802 39.8997 67.8879 39.716 66.6312 39.716H60.4832L60.6572 39.455V54.303ZM82.4435 57V53.984H86.8515V39.716H82.4435V36.7H94.3915V39.716H89.9835V53.984H94.3915V57H82.4435ZM106.179 57V39.716H99.3346V36.7H116.3V39.716H109.311V57H106.179Z" fill="white"/>
</svg>
