<svg width="150" height="64" viewBox="0 0 150 64" fill="none" xmlns="http://www.w3.org/2000/svg">
<rect x="1" y="1" width="148" height="62" fill="#AB2529"/>
<path d="M16.8692 32V11.7H26.7872C28.3145 11.7 29.5905 11.903 30.6152 12.309C31.6592 12.6957 32.4422 13.266 32.9642 14.02C33.4862 14.774 33.7472 15.702 33.7472 16.804C33.7472 17.8867 33.4088 18.8147 32.7322 19.588C32.0748 20.3613 31.1178 20.9123 29.8612 21.241L29.9772 20.661C30.8665 20.8543 31.6785 21.183 32.4132 21.647C33.1478 22.0917 33.7278 22.6813 34.1532 23.416C34.5978 24.1507 34.8202 25.0207 34.8202 26.026C34.8202 27.1087 34.6172 28.0367 34.2112 28.81C33.8245 29.564 33.2832 30.173 32.5872 30.637C31.8912 31.101 31.0888 31.449 30.1802 31.681C29.2908 31.8937 28.3435 32 27.3382 32H16.8692ZM20.0012 28.984H27.3382C28.2082 28.984 28.9622 28.8777 29.6002 28.665C30.2382 28.433 30.7312 28.0947 31.0792 27.65C31.4465 27.186 31.6302 26.6253 31.6302 25.968C31.6302 25.272 31.4175 24.7113 30.9922 24.286C30.5668 23.8607 30.0158 23.5513 29.3392 23.358C28.6625 23.1453 27.9472 23.039 27.1932 23.039H20.0012V28.984ZM20.0012 20.023H27.0482C27.6862 20.023 28.2758 19.9167 28.8172 19.704C29.3585 19.472 29.7838 19.153 30.0932 18.747C30.4025 18.341 30.5572 17.8673 30.5572 17.326C30.5572 16.4367 30.1995 15.7793 29.4842 15.354C28.7688 14.9287 27.8408 14.716 26.7002 14.716H20.0012V20.023ZM38.1964 32L47.1864 11.7H50.6374L59.5984 32H56.2054L50.3474 18.776C50.2121 18.5247 50.0574 18.1863 49.8834 17.761C49.7287 17.3357 49.5547 16.891 49.3614 16.427C49.1874 15.9437 49.0134 15.4797 48.8394 15.035C48.6847 14.571 48.5494 14.1747 48.4334 13.846L49.2454 13.817C49.0907 14.223 48.9264 14.6483 48.7524 15.093C48.5977 15.5377 48.4334 15.992 48.2594 16.456C48.0854 16.9007 47.9114 17.3357 47.7374 17.761C47.5634 18.167 47.3991 18.544 47.2444 18.892L41.4444 32H38.1964ZM42.1404 27.128L43.3294 24.112H54.1464L55.0164 27.128H42.1404ZM64.2749 32V28.984H68.6829V14.716H64.2749V11.7H76.2229V14.716H71.8149V28.984H76.2229V32H64.2749ZM81.804 25.098V22.227H91.316V25.098H81.804ZM97.0485 32V11.7H112.099V14.716H100.18V28.984H112.099V32H97.0485ZM98.6435 23.097V20.081H110.504V23.097H98.6435ZM118.715 32V11.7H133.766V14.716H121.847V28.984H133.766V32H118.715ZM120.31 23.097V20.081H132.171V23.097H120.31ZM36.9352 56V35.7H40.0672V56H36.9352ZM38.1242 47.532V44.516H50.7392V47.532H38.1242ZM38.3562 38.716V35.7H52.0442V38.716H38.3562ZM58.0067 56V35.7H61.1387V52.984H72.9127V56H58.0067ZM78.8468 56V52.984H83.2548V38.716H78.8468V35.7H90.7948V38.716H86.3868V52.984H90.7948V56H78.8468ZM97.8839 56V35.7H108.15C109.31 35.7 110.364 35.9803 111.311 36.541C112.278 37.0823 113.041 37.8267 113.602 38.774C114.182 39.7213 114.472 40.775 114.472 41.935C114.472 43.1337 114.172 44.2163 113.573 45.183C112.974 46.1497 112.171 46.9327 111.166 47.532C110.161 48.112 109.049 48.402 107.831 48.402H101.016V56H97.8839ZM101.016 45.386H107.657C108.295 45.386 108.885 45.2313 109.426 44.922C109.967 44.5933 110.393 44.168 110.702 43.646C111.031 43.124 111.195 42.5537 111.195 41.935C111.195 41.3357 111.031 40.7943 110.702 40.311C110.393 39.8277 109.967 39.441 109.426 39.151C108.885 38.861 108.295 38.716 107.657 38.716H101.016V45.386Z" fill="white"/>
<rect x="1" y="1" width="148" height="62" stroke="#FFFD38" stroke-width="2"/>
</svg>
